<?xml version="1.0" encoding="UTF-8" standalone="no"?>
<!DOCTYPE svg PUBLIC "-//W3C//DTD SVG 1.1//EN" "http://www.w3.org/Graphics/SVG/1.1/DTD/svg11.dtd">
<svg width="100%" height="100%" viewBox="0 0 187 449" version="1.1" xmlns="http://www.w3.org/2000/svg" xmlns:xlink="http://www.w3.org/1999/xlink" xml:space="preserve" xmlns:serif="http://www.serif.com/" style="fill-rule:evenodd;clip-rule:evenodd;stroke-linejoin:round;stroke-miterlimit:1.41421;">
    <g id="Монтажная-область1" serif:id="Монтажная область1" transform="matrix(1.16783,0,0,1.06597,0,-5.96084e-05)">
        <rect x="0" y="0" width="160.086" height="420.431" style="fill:none;"/>
        <g transform="matrix(1.05402,6.31751e-17,-3.39852e-16,3.13492,-743.006,14.9997)">
            <g transform="matrix(0.215831,-1.16959e-17,-7.93805e-18,0.0795011,708.578,31.8951)">
                <circle cx="50.5" cy="33.5" r="18.5" style="fill:rgb(0,196,253);fill-opacity:0.34902;"/>
            </g>
            <g transform="matrix(0.215831,-1.16959e-17,-7.93805e-18,0.0795011,739.095,31.8951)">
                <circle cx="50.5" cy="33.5" r="18.5" style="fill:rgb(0,196,253);fill-opacity:0.34902;"/>
            </g>
            <g transform="matrix(0.215831,-1.16959e-17,-7.93805e-18,0.0795011,800.129,31.8951)">
                <circle cx="50.5" cy="33.5" r="18.5" style="fill:rgb(0,196,253);fill-opacity:0.34902;"/>
            </g>
            <g transform="matrix(0.215831,-1.16959e-17,-7.93805e-18,0.0795011,830.646,31.8951)">
                <circle cx="50.5" cy="33.5" r="18.5" style="fill:rgb(0,196,253);fill-opacity:0.34902;"/>
            </g>
            <g transform="matrix(0.215831,-1.16959e-17,-7.93805e-18,0.0795011,769.612,31.8951)">
                <circle cx="50.5" cy="33.5" r="18.5" style="fill:rgb(0,196,253);fill-opacity:0.34902;"/>
            </g>
            <g transform="matrix(0.215831,-1.16959e-17,-7.93805e-18,0.0795011,708.578,20.6542)">
                <circle cx="50.5" cy="33.5" r="18.5" style="fill:rgb(0,196,253);fill-opacity:0.34902;"/>
            </g>
            <g transform="matrix(0.215831,-1.16959e-17,-7.93805e-18,0.0795011,739.095,20.6542)">
                <circle cx="50.5" cy="33.5" r="18.5" style="fill:rgb(0,196,253);fill-opacity:0.34902;"/>
            </g>
            <g transform="matrix(0.215831,-1.16959e-17,-7.93805e-18,0.0795011,800.129,20.6542)">
                <circle cx="50.5" cy="33.5" r="18.5" style="fill:rgb(0,196,253);fill-opacity:0.34902;"/>
            </g>
            <g transform="matrix(0.215831,-1.16959e-17,-7.93805e-18,0.0795011,830.646,20.6542)">
                <circle cx="50.5" cy="33.5" r="18.5" style="fill:rgb(0,196,253);fill-opacity:0.34902;"/>
            </g>
            <g transform="matrix(0.215831,-1.16959e-17,-7.93805e-18,0.0795011,769.612,20.6542)">
                <circle cx="50.5" cy="33.5" r="18.5" style="fill:rgb(0,196,253);fill-opacity:0.34902;"/>
            </g>
            <g transform="matrix(0.215831,-1.16959e-17,-7.93805e-18,0.0795011,708.578,9.41336)">
                <circle cx="50.5" cy="33.5" r="18.5" style="fill:rgb(0,196,253);fill-opacity:0.34902;"/>
            </g>
            <g transform="matrix(0.215831,-1.16959e-17,-7.93805e-18,0.0795011,739.095,9.41336)">
                <circle cx="50.5" cy="33.5" r="18.5" style="fill:rgb(0,196,253);fill-opacity:0.34902;"/>
            </g>
            <g transform="matrix(0.215831,-1.16959e-17,-7.93805e-18,0.0795011,800.129,9.41336)">
                <circle cx="50.5" cy="33.5" r="18.5" style="fill:rgb(0,196,253);fill-opacity:0.34902;"/>
            </g>
            <g transform="matrix(0.215831,-1.16959e-17,-7.93805e-18,0.0795011,830.646,9.41336)">
                <circle cx="50.5" cy="33.5" r="18.5" style="fill:rgb(0,196,253);fill-opacity:0.34902;"/>
            </g>
            <g transform="matrix(0.215831,-1.16959e-17,-7.93805e-18,0.0795011,769.612,9.41336)">
                <circle cx="50.5" cy="33.5" r="18.5" style="fill:rgb(0,196,253);fill-opacity:0.34902;"/>
            </g>
            <g transform="matrix(0.215831,-1.16959e-17,-7.93805e-18,0.0795011,708.578,-1.82751)">
                <circle cx="50.5" cy="33.5" r="18.5" style="fill:rgb(0,196,253);fill-opacity:0.34902;"/>
            </g>
            <g transform="matrix(0.215831,-1.16959e-17,-7.93805e-18,0.0795011,739.095,-1.82751)">
                <circle cx="50.5" cy="33.5" r="18.5" style="fill:rgb(0,196,253);fill-opacity:0.34902;"/>
            </g>
            <g transform="matrix(0.215831,-1.16959e-17,-7.93805e-18,0.0795011,800.129,-1.82751)">
                <circle cx="50.5" cy="33.5" r="18.5" style="fill:rgb(0,196,253);fill-opacity:0.34902;"/>
            </g>
            <g transform="matrix(0.215831,-1.16959e-17,-7.93805e-18,0.0795011,830.646,-1.82751)">
                <circle cx="50.5" cy="33.5" r="18.5" style="fill:rgb(0,196,253);fill-opacity:0.34902;"/>
            </g>
            <g transform="matrix(0.215831,-1.16959e-17,-7.93805e-18,0.0795011,769.612,-1.82751)">
                <circle cx="50.5" cy="33.5" r="18.5" style="fill:rgb(0,196,253);fill-opacity:0.34902;"/>
            </g>
            <g transform="matrix(0.215831,-1.16959e-17,-7.93805e-18,0.0795011,708.578,53.5989)">
                <circle cx="50.5" cy="33.5" r="18.5" style="fill:rgb(0,196,253);fill-opacity:0.34902;"/>
            </g>
            <g transform="matrix(0.215831,-1.16959e-17,-7.93805e-18,0.0795011,739.095,53.5989)">
                <circle cx="50.5" cy="33.5" r="18.5" style="fill:rgb(0,196,253);fill-opacity:0.34902;"/>
            </g>
            <g transform="matrix(0.215831,-1.16959e-17,-7.93805e-18,0.0795011,800.129,53.5989)">
                <circle cx="50.5" cy="33.5" r="18.5" style="fill:rgb(0,196,253);fill-opacity:0.34902;"/>
            </g>
            <g transform="matrix(0.215831,-1.16959e-17,-7.93805e-18,0.0795011,830.646,53.5989)">
                <circle cx="50.5" cy="33.5" r="18.5" style="fill:rgb(0,196,253);fill-opacity:0.34902;"/>
            </g>
            <g transform="matrix(0.215831,-1.16959e-17,-7.93805e-18,0.0795011,769.612,53.5989)">
                <circle cx="50.5" cy="33.5" r="18.5" style="fill:rgb(0,196,253);fill-opacity:0.34902;"/>
            </g>
            <g transform="matrix(0.215831,-1.16959e-17,-7.93805e-18,0.0795011,708.578,76.0807)">
                <circle cx="50.5" cy="33.5" r="18.5" style="fill:rgb(0,196,253);fill-opacity:0.34902;"/>
            </g>
            <g transform="matrix(0.215831,-1.16959e-17,-7.93805e-18,0.0795011,739.095,76.0807)">
                <circle cx="50.5" cy="33.5" r="18.5" style="fill:rgb(0,196,253);fill-opacity:0.34902;"/>
            </g>
            <g transform="matrix(0.215831,-1.16959e-17,-7.93805e-18,0.0795011,800.129,76.0807)">
                <circle cx="50.5" cy="33.5" r="18.5" style="fill:rgb(0,196,253);fill-opacity:0.34902;"/>
            </g>
            <g transform="matrix(0.215831,-1.16959e-17,-7.93805e-18,0.0795011,830.646,76.0807)">
                <circle cx="50.5" cy="33.5" r="18.5" style="fill:rgb(0,196,253);fill-opacity:0.34902;"/>
            </g>
            <g transform="matrix(0.215831,-1.16959e-17,-7.93805e-18,0.0795011,769.612,76.0807)">
                <circle cx="50.5" cy="33.5" r="18.5" style="fill:rgb(0,196,253);fill-opacity:0.34902;"/>
            </g>
            <g transform="matrix(0.215831,-1.16959e-17,-7.93805e-18,0.0795011,708.578,43.136)">
                <circle cx="50.5" cy="33.5" r="18.5" style="fill:rgb(0,196,253);fill-opacity:0.34902;"/>
            </g>
            <g transform="matrix(0.215831,-1.16959e-17,-7.93805e-18,0.0795011,739.095,43.136)">
                <circle cx="50.5" cy="33.5" r="18.5" style="fill:rgb(0,196,253);fill-opacity:0.34902;"/>
            </g>
            <g transform="matrix(0.215831,-1.16959e-17,-7.93805e-18,0.0795011,800.129,43.136)">
                <circle cx="50.5" cy="33.5" r="18.5" style="fill:rgb(0,196,253);fill-opacity:0.34902;"/>
            </g>
            <g transform="matrix(0.215831,-1.16959e-17,-7.93805e-18,0.0795011,830.646,43.136)">
                <circle cx="50.5" cy="33.5" r="18.5" style="fill:rgb(0,196,253);fill-opacity:0.34902;"/>
            </g>
            <g transform="matrix(0.215831,-1.16959e-17,-7.93805e-18,0.0795011,769.612,43.136)">
                <circle cx="50.5" cy="33.5" r="18.5" style="fill:rgb(0,196,253);fill-opacity:0.34902;"/>
            </g>
            <g transform="matrix(0.215831,-1.16959e-17,-7.93805e-18,0.0795011,708.578,64.8398)">
                <circle cx="50.5" cy="33.5" r="18.5" style="fill:rgb(0,196,253);fill-opacity:0.34902;"/>
            </g>
            <g transform="matrix(0.215831,-1.16959e-17,-7.93805e-18,0.0795011,739.095,64.8398)">
                <circle cx="50.5" cy="33.5" r="18.5" style="fill:rgb(0,196,253);fill-opacity:0.34902;"/>
            </g>
            <g transform="matrix(0.215831,-1.16959e-17,-7.93805e-18,0.0795011,800.129,64.8398)">
                <circle cx="50.5" cy="33.5" r="18.5" style="fill:rgb(0,196,253);fill-opacity:0.34902;"/>
            </g>
            <g transform="matrix(0.215831,-1.16959e-17,-7.93805e-18,0.0795011,830.646,64.8398)">
                <circle cx="50.5" cy="33.5" r="18.5" style="fill:rgb(0,196,253);fill-opacity:0.34902;"/>
            </g>
            <g transform="matrix(0.215831,-1.16959e-17,-7.93805e-18,0.0795011,769.612,64.8398)">
                <circle cx="50.5" cy="33.5" r="18.5" style="fill:rgb(0,196,253);fill-opacity:0.34902;"/>
            </g>
            <g transform="matrix(0.215831,-1.16959e-17,-7.93805e-18,0.0795011,708.578,87.3215)">
                <circle cx="50.5" cy="33.5" r="18.5" style="fill:rgb(0,196,253);fill-opacity:0.34902;"/>
            </g>
            <g transform="matrix(0.215831,-1.16959e-17,-7.93805e-18,0.0795011,739.095,87.3215)">
                <circle cx="50.5" cy="33.5" r="18.5" style="fill:rgb(0,196,253);fill-opacity:0.34902;"/>
            </g>
            <g transform="matrix(0.215831,-1.16959e-17,-7.93805e-18,0.0795011,800.129,87.3215)">
                <circle cx="50.5" cy="33.5" r="18.5" style="fill:rgb(0,196,253);fill-opacity:0.34902;"/>
            </g>
            <g transform="matrix(0.215831,-1.16959e-17,-7.93805e-18,0.0795011,830.646,87.3215)">
                <circle cx="50.5" cy="33.5" r="18.5" style="fill:rgb(0,196,253);fill-opacity:0.34902;"/>
            </g>
            <g transform="matrix(0.215831,-1.16959e-17,-7.93805e-18,0.0795011,769.612,87.3215)">
                <circle cx="50.5" cy="33.5" r="18.5" style="fill:rgb(0,196,253);fill-opacity:0.34902;"/>
            </g>
            <g transform="matrix(0.215831,-1.16959e-17,-7.93805e-18,0.0795011,708.578,98.5624)">
                <circle cx="50.5" cy="33.5" r="18.5" style="fill:rgb(0,196,253);fill-opacity:0.34902;"/>
            </g>
            <g transform="matrix(0.215831,-1.16959e-17,-7.93805e-18,0.0795011,739.095,98.5624)">
                <circle cx="50.5" cy="33.5" r="18.5" style="fill:rgb(0,196,253);fill-opacity:0.34902;"/>
            </g>
            <g transform="matrix(0.215831,-1.16959e-17,-7.93805e-18,0.0795011,800.129,98.5624)">
                <circle cx="50.5" cy="33.5" r="18.5" style="fill:rgb(0,196,253);fill-opacity:0.34902;"/>
            </g>
            <g transform="matrix(0.215831,-1.16959e-17,-7.93805e-18,0.0795011,830.646,98.5624)">
                <circle cx="50.5" cy="33.5" r="18.5" style="fill:rgb(0,196,253);fill-opacity:0.34902;"/>
            </g>
            <g transform="matrix(0.215831,-1.16959e-17,-7.93805e-18,0.0795011,769.612,98.5624)">
                <circle cx="50.5" cy="33.5" r="18.5" style="fill:rgb(0,196,253);fill-opacity:0.34902;"/>
            </g>
            <g transform="matrix(0.215831,-1.16959e-17,-7.93805e-18,0.0795011,708.578,121.044)">
                <circle cx="50.5" cy="33.5" r="18.5" style="fill:rgb(0,196,253);fill-opacity:0.34902;"/>
            </g>
            <g transform="matrix(0.215831,-1.16959e-17,-7.93805e-18,0.0795011,739.095,121.044)">
                <circle cx="50.5" cy="33.5" r="18.5" style="fill:rgb(0,196,253);fill-opacity:0.34902;"/>
            </g>
            <g transform="matrix(0.215831,-1.16959e-17,-7.93805e-18,0.0795011,800.129,121.044)">
                <circle cx="50.5" cy="33.5" r="18.5" style="fill:rgb(0,196,253);fill-opacity:0.34902;"/>
            </g>
            <g transform="matrix(0.215831,-1.16959e-17,-7.93805e-18,0.0795011,830.646,121.044)">
                <circle cx="50.5" cy="33.5" r="18.5" style="fill:rgb(0,196,253);fill-opacity:0.34902;"/>
            </g>
            <g transform="matrix(0.215831,-1.16959e-17,-7.93805e-18,0.0795011,769.612,121.044)">
                <circle cx="50.5" cy="33.5" r="18.5" style="fill:rgb(0,196,253);fill-opacity:0.34902;"/>
            </g>
            <g transform="matrix(0.215831,-1.16959e-17,-7.93805e-18,0.0795011,708.578,109.803)">
                <circle cx="50.5" cy="33.5" r="18.5" style="fill:rgb(0,196,253);fill-opacity:0.34902;"/>
            </g>
            <g transform="matrix(0.215831,-1.16959e-17,-7.93805e-18,0.0795011,739.095,109.803)">
                <circle cx="50.5" cy="33.5" r="18.5" style="fill:rgb(0,196,253);fill-opacity:0.34902;"/>
            </g>
            <g transform="matrix(0.215831,-1.16959e-17,-7.93805e-18,0.0795011,800.129,109.803)">
                <circle cx="50.5" cy="33.5" r="18.5" style="fill:rgb(0,196,253);fill-opacity:0.34902;"/>
            </g>
            <g transform="matrix(0.215831,-1.16959e-17,-7.93805e-18,0.0795011,830.646,109.803)">
                <circle cx="50.5" cy="33.5" r="18.5" style="fill:rgb(0,196,253);fill-opacity:0.34902;"/>
            </g>
            <g transform="matrix(0.215831,-1.16959e-17,-7.93805e-18,0.0795011,769.612,109.803)">
                <circle cx="50.5" cy="33.5" r="18.5" style="fill:rgb(0,196,253);fill-opacity:0.34902;"/>
            </g>
        </g>
    </g>
</svg>
