<?xml version="1.0" encoding="UTF-8" standalone="no"?>
<!DOCTYPE svg PUBLIC "-//W3C//DTD SVG 1.1//EN" "http://www.w3.org/Graphics/SVG/1.1/DTD/svg11.dtd">
<svg width="100%" height="100%" viewBox="0 0 158 47" version="1.1" xmlns="http://www.w3.org/2000/svg" xmlns:xlink="http://www.w3.org/1999/xlink" xml:space="preserve" xmlns:serif="http://www.serif.com/" style="fill-rule:evenodd;clip-rule:evenodd;stroke-linejoin:round;stroke-miterlimit:1.41421;">
    <g transform="matrix(1,0,0,1,-872.466,-3388.58)">
        <g transform="matrix(1,0,0,3.26767,0,0)">
            <g transform="matrix(1,0,0,1,0,-0.0406017)">
                <g transform="matrix(0.828887,0,0,0.253663,152.465,176.932)">
                    <path d="M940.312,3418L940.312,3410.05L933.077,3399.23L936.099,3399.23L939.799,3404.89C940.482,3405.95 941.118,3407.01 941.707,3408.06C942.271,3407.08 942.954,3405.98 943.756,3404.75L947.393,3399.23L950.287,3399.23L942.796,3410.05L942.796,3418L940.312,3418Z" style="fill:rgb(21,21,21);fill-rule:nonzero;"/>
                    <path d="M950.004,3411.2C950.004,3408.68 950.704,3406.82 952.104,3405.61C953.273,3404.6 954.699,3404.09 956.381,3404.09C958.25,3404.09 959.778,3404.71 960.965,3405.93C962.152,3407.16 962.745,3408.85 962.745,3411.01C962.745,3412.76 962.482,3414.14 961.957,3415.14C961.432,3416.14 960.668,3416.92 959.665,3417.47C958.662,3418.03 957.567,3418.31 956.381,3418.31C954.477,3418.31 952.938,3417.7 951.765,3416.48C950.591,3415.26 950.004,3413.5 950.004,3411.2ZM952.373,3411.2C952.373,3412.94 952.753,3414.25 953.513,3415.11C954.272,3415.98 955.228,3416.41 956.381,3416.41C957.525,3416.41 958.477,3415.98 959.236,3415.11C959.996,3414.24 960.376,3412.91 960.376,3411.12C960.376,3409.44 959.994,3408.17 959.23,3407.3C958.466,3406.43 957.516,3406 956.381,3406C955.228,3406 954.272,3406.43 953.513,3407.3C952.753,3408.16 952.373,3409.46 952.373,3411.2Z" style="fill:rgb(21,21,21);fill-rule:nonzero;"/>
                    <path d="M975.408,3418L975.408,3416C974.349,3417.54 972.911,3418.31 971.093,3418.31C970.29,3418.31 969.541,3418.15 968.845,3417.85C968.15,3417.54 967.633,3417.15 967.296,3416.69C966.959,3416.22 966.722,3415.65 966.585,3414.98C966.491,3414.53 966.444,3413.81 966.444,3412.83L966.444,3404.4L968.749,3404.4L968.749,3411.94C968.749,3413.15 968.796,3413.96 968.89,3414.38C969.035,3414.98 969.343,3415.46 969.812,3415.8C970.282,3416.15 970.862,3416.32 971.554,3416.32C972.245,3416.32 972.894,3416.14 973.5,3415.79C974.106,3415.44 974.535,3414.95 974.787,3414.34C975.039,3413.73 975.165,3412.85 975.165,3411.69L975.165,3404.4L977.47,3404.4L977.47,3418L975.408,3418Z" style="fill:rgb(21,21,21);fill-rule:nonzero;"/>
                    <path d="M982.104,3418L982.104,3404.4L984.178,3404.4L984.178,3406.46C984.708,3405.5 985.196,3404.86 985.644,3404.56C986.093,3404.25 986.586,3404.09 987.123,3404.09C987.9,3404.09 988.69,3404.34 989.492,3404.84L988.698,3406.97C988.135,3406.64 987.572,3406.48 987.008,3406.48C986.505,3406.48 986.052,3406.63 985.651,3406.93C985.25,3407.23 984.964,3407.65 984.793,3408.19C984.537,3409.01 984.409,3409.91 984.409,3410.88L984.409,3418L982.104,3418Z" style="fill:rgb(21,21,21);fill-rule:nonzero;"/>
                    <path d="M1005.36,3418L1005.36,3410.05L998.121,3399.23L1001.14,3399.23L1004.84,3404.89C1005.53,3405.95 1006.16,3407.01 1006.75,3408.06C1007.32,3407.08 1008,3405.98 1008.8,3404.75L1012.44,3399.23L1015.33,3399.23L1007.84,3410.05L1007.84,3418L1005.36,3418Z" style="fill:rgb(21,21,21);fill-rule:nonzero;"/>
                    <path d="M1015.05,3411.2C1015.05,3408.68 1015.75,3406.82 1017.15,3405.61C1018.32,3404.6 1019.74,3404.09 1021.43,3404.09C1023.29,3404.09 1024.82,3404.71 1026.01,3405.93C1027.2,3407.16 1027.79,3408.85 1027.79,3411.01C1027.79,3412.76 1027.53,3414.14 1027,3415.14C1026.48,3416.14 1025.71,3416.92 1024.71,3417.47C1023.71,3418.03 1022.61,3418.31 1021.43,3418.31C1019.52,3418.31 1017.98,3417.7 1016.81,3416.48C1015.63,3415.26 1015.05,3413.5 1015.05,3411.2ZM1017.42,3411.2C1017.42,3412.94 1017.8,3414.25 1018.56,3415.11C1019.32,3415.98 1020.27,3416.41 1021.43,3416.41C1022.57,3416.41 1023.52,3415.98 1024.28,3415.11C1025.04,3414.24 1025.42,3412.91 1025.42,3411.12C1025.42,3409.44 1025.04,3408.17 1024.27,3407.3C1023.51,3406.43 1022.56,3406 1021.43,3406C1020.27,3406 1019.32,3406.43 1018.56,3407.3C1017.8,3408.16 1017.42,3409.46 1017.42,3411.2Z" style="fill:rgb(21,21,21);fill-rule:nonzero;"/>
                    <path d="M1031.12,3419.13L1033.36,3419.46C1033.45,3420.15 1033.71,3420.66 1034.14,3420.97C1034.71,3421.4 1035.49,3421.61 1036.48,3421.61C1037.55,3421.61 1038.37,3421.4 1038.95,3420.97C1039.53,3420.54 1039.93,3419.95 1040.13,3419.18C1040.25,3418.71 1040.31,3417.72 1040.3,3416.22C1039.29,3417.41 1038.04,3418 1036.53,3418C1034.66,3418 1033.22,3417.33 1032.19,3415.98C1031.17,3414.63 1030.66,3413.01 1030.66,3411.12C1030.66,3409.83 1030.89,3408.63 1031.36,3407.53C1031.83,3406.43 1032.51,3405.59 1033.4,3404.99C1034.3,3404.39 1035.34,3404.09 1036.55,3404.09C1038.15,3404.09 1039.47,3404.74 1040.52,3406.04L1040.52,3404.4L1042.64,3404.4L1042.64,3416.16C1042.64,3418.27 1042.43,3419.77 1042,3420.66C1041.56,3421.54 1040.88,3422.24 1039.95,3422.75C1039.01,3423.26 1037.86,3423.52 1036.5,3423.52C1034.87,3423.52 1033.56,3423.15 1032.56,3422.42C1031.57,3421.69 1031.08,3420.6 1031.12,3419.13ZM1033.03,3410.96C1033.03,3412.74 1033.38,3414.04 1034.09,3414.86C1034.8,3415.68 1035.68,3416.09 1036.75,3416.09C1037.81,3416.09 1038.7,3415.68 1039.41,3414.87C1040.13,3414.05 1040.49,3412.78 1040.49,3411.03C1040.49,3409.37 1040.12,3408.12 1039.38,3407.27C1038.64,3406.42 1037.75,3406 1036.71,3406C1035.69,3406 1034.82,3406.42 1034.1,3407.25C1033.38,3408.08 1033.03,3409.32 1033.03,3410.96Z" style="fill:rgb(21,21,21);fill-rule:nonzero;"/>
                    <path d="M1056.05,3416.32C1055.19,3417.05 1054.37,3417.56 1053.58,3417.86C1052.79,3418.16 1051.95,3418.31 1051.04,3418.31C1049.55,3418.31 1048.4,3417.94 1047.6,3417.21C1046.79,3416.48 1046.39,3415.55 1046.39,3414.41C1046.39,3413.75 1046.54,3413.14 1046.85,3412.59C1047.15,3412.04 1047.55,3411.6 1048.04,3411.26C1048.53,3410.93 1049.08,3410.68 1049.7,3410.51C1050.15,3410.39 1050.83,3410.27 1051.75,3410.16C1053.61,3409.94 1054.98,3409.68 1055.86,3409.37C1055.86,3409.05 1055.87,3408.85 1055.87,3408.77C1055.87,3407.83 1055.65,3407.17 1055.21,3406.78C1054.63,3406.26 1053.75,3406 1052.59,3406C1051.51,3406 1050.71,3406.19 1050.19,3406.57C1049.67,3406.95 1049.29,3407.62 1049.04,3408.59L1046.79,3408.28C1046.99,3407.32 1047.33,3406.54 1047.8,3405.94C1048.27,3405.35 1048.95,3404.89 1049.84,3404.57C1050.72,3404.25 1051.75,3404.09 1052.92,3404.09C1054.08,3404.09 1055.03,3404.23 1055.75,3404.5C1056.48,3404.78 1057.01,3405.12 1057.35,3405.53C1057.69,3405.95 1057.93,3406.47 1058.07,3407.1C1058.15,3407.5 1058.19,3408.2 1058.19,3409.23L1058.19,3412.3C1058.19,3414.44 1058.24,3415.8 1058.33,3416.37C1058.43,3416.93 1058.63,3417.48 1058.92,3418L1056.51,3418C1056.27,3417.52 1056.12,3416.96 1056.05,3416.32ZM1055.86,3411.18C1055.02,3411.52 1053.76,3411.81 1052.09,3412.05C1051.14,3412.18 1050.47,3412.34 1050.08,3412.51C1049.69,3412.68 1049.38,3412.93 1049.17,3413.26C1048.96,3413.58 1048.85,3413.95 1048.85,3414.35C1048.85,3414.97 1049.08,3415.48 1049.55,3415.89C1050.01,3416.3 1050.69,3416.5 1051.59,3416.5C1052.48,3416.5 1053.27,3416.31 1053.96,3415.92C1054.65,3415.53 1055.16,3415 1055.48,3414.33C1055.73,3413.8 1055.86,3413.04 1055.86,3412.02L1055.86,3411.18Z" style="fill:rgb(21,21,21);fill-rule:nonzero;"/>
                </g>
                <g transform="matrix(0.416108,0,0,0.127341,537.979,613.961)">
                    <path d="M943.602,3416.32C942.749,3417.05 941.927,3417.56 941.138,3417.86C940.348,3418.16 939.501,3418.31 938.596,3418.31C937.102,3418.31 935.954,3417.94 935.151,3417.21C934.349,3416.48 933.948,3415.55 933.948,3414.41C933.948,3413.75 934.099,3413.14 934.402,3412.59C934.705,3412.04 935.102,3411.6 935.593,3411.26C936.084,3410.93 936.637,3410.68 937.251,3410.51C937.704,3410.39 938.387,3410.27 939.3,3410.16C941.161,3409.94 942.531,3409.68 943.41,3409.37C943.419,3409.05 943.423,3408.85 943.423,3408.77C943.423,3407.83 943.206,3407.17 942.77,3406.78C942.181,3406.26 941.306,3406 940.145,3406C939.061,3406 938.261,3406.19 937.744,3406.57C937.228,3406.95 936.846,3407.62 936.598,3408.59L934.345,3408.28C934.549,3407.32 934.887,3406.54 935.356,3405.94C935.826,3405.35 936.504,3404.89 937.392,3404.57C938.28,3404.25 939.309,3404.09 940.478,3404.09C941.639,3404.09 942.582,3404.23 943.308,3404.5C944.034,3404.78 944.567,3405.12 944.909,3405.53C945.25,3405.95 945.489,3406.47 945.626,3407.1C945.703,3407.5 945.741,3408.2 945.741,3409.23L945.741,3412.3C945.741,3414.44 945.79,3415.8 945.888,3416.37C945.986,3416.93 946.181,3417.48 946.471,3418L944.063,3418C943.824,3417.52 943.671,3416.96 943.602,3416.32ZM943.41,3411.18C942.574,3411.52 941.319,3411.81 939.646,3412.05C938.698,3412.18 938.028,3412.34 937.635,3412.51C937.243,3412.68 936.94,3412.93 936.726,3413.26C936.513,3413.58 936.406,3413.95 936.406,3414.35C936.406,3414.97 936.639,3415.48 937.104,3415.89C937.569,3416.3 938.25,3416.5 939.146,3416.5C940.034,3416.5 940.824,3416.31 941.515,3415.92C942.207,3415.53 942.715,3415 943.039,3414.33C943.287,3413.8 943.41,3413.04 943.41,3412.02L943.41,3411.18Z" style="fill:rgb(21,21,21);fill-rule:nonzero;"/>
                    <path d="M949.441,3413.94L951.72,3413.58C951.848,3414.5 952.204,3415.2 952.789,3415.68C953.374,3416.17 954.191,3416.41 955.241,3416.41C956.3,3416.41 957.085,3416.2 957.597,3415.77C958.109,3415.33 958.366,3414.83 958.366,3414.25C958.366,3413.73 958.139,3413.32 957.687,3413.02C957.371,3412.81 956.586,3412.55 955.331,3412.24C953.641,3411.81 952.469,3411.44 951.816,3411.13C951.163,3410.82 950.668,3410.39 950.33,3409.84C949.993,3409.29 949.825,3408.68 949.825,3408.01C949.825,3407.41 949.963,3406.85 950.241,3406.33C950.518,3405.81 950.896,3405.38 951.374,3405.04C951.733,3404.78 952.221,3404.55 952.84,3404.37C953.459,3404.19 954.123,3404.09 954.831,3404.09C955.898,3404.09 956.835,3404.25 957.642,3404.56C958.449,3404.86 959.044,3405.28 959.428,3405.8C959.813,3406.33 960.077,3407.03 960.222,3407.91L957.969,3408.22C957.866,3407.52 957.57,3406.97 957.079,3406.58C956.588,3406.18 955.894,3405.99 954.998,3405.99C953.939,3405.99 953.184,3406.16 952.731,3406.51C952.279,3406.86 952.053,3407.27 952.053,3407.74C952.053,3408.04 952.147,3408.31 952.334,3408.55C952.522,3408.8 952.817,3409 953.218,3409.16C953.448,3409.25 954.127,3409.45 955.254,3409.75C956.884,3410.19 958.022,3410.55 958.666,3410.82C959.311,3411.1 959.817,3411.5 960.184,3412.03C960.551,3412.56 960.734,3413.22 960.734,3414.01C960.734,3414.77 960.51,3415.5 960.062,3416.18C959.614,3416.85 958.967,3417.38 958.122,3417.75C957.277,3418.12 956.321,3418.31 955.254,3418.31C953.487,3418.31 952.14,3417.94 951.214,3417.21C950.288,3416.47 949.697,3415.38 949.441,3413.94Z" style="fill:rgb(21,21,21);fill-rule:nonzero;"/>
                    <path d="M973.398,3416.32C972.544,3417.05 971.722,3417.56 970.933,3417.86C970.143,3418.16 969.296,3418.31 968.391,3418.31C966.897,3418.31 965.749,3417.94 964.946,3417.21C964.144,3416.48 963.743,3415.55 963.743,3414.41C963.743,3413.75 963.894,3413.14 964.197,3412.59C964.5,3412.04 964.897,3411.6 965.388,3411.26C965.879,3410.93 966.432,3410.68 967.046,3410.51C967.499,3410.39 968.182,3410.27 969.095,3410.16C970.956,3409.94 972.326,3409.68 973.205,3409.37C973.214,3409.05 973.218,3408.85 973.218,3408.77C973.218,3407.83 973.001,3407.17 972.565,3406.78C971.976,3406.26 971.101,3406 969.94,3406C968.856,3406 968.056,3406.19 967.539,3406.57C967.023,3406.95 966.641,3407.62 966.393,3408.59L964.14,3408.28C964.344,3407.32 964.682,3406.54 965.151,3405.94C965.621,3405.35 966.299,3404.89 967.187,3404.57C968.075,3404.25 969.104,3404.09 970.273,3404.09C971.434,3404.09 972.377,3404.23 973.103,3404.5C973.829,3404.78 974.362,3405.12 974.704,3405.53C975.045,3405.95 975.284,3406.47 975.421,3407.1C975.498,3407.5 975.536,3408.2 975.536,3409.23L975.536,3412.3C975.536,3414.44 975.585,3415.8 975.683,3416.37C975.781,3416.93 975.976,3417.48 976.266,3418L973.859,3418C973.62,3417.52 973.466,3416.96 973.398,3416.32ZM973.205,3411.18C972.369,3411.52 971.114,3411.81 969.441,3412.05C968.493,3412.18 967.823,3412.34 967.43,3412.51C967.038,3412.68 966.735,3412.93 966.521,3413.26C966.308,3413.58 966.201,3413.95 966.201,3414.35C966.201,3414.97 966.434,3415.48 966.899,3415.89C967.364,3416.3 968.045,3416.5 968.941,3416.5C969.829,3416.5 970.619,3416.31 971.31,3415.92C972.002,3415.53 972.51,3415 972.834,3414.33C973.082,3413.8 973.205,3413.04 973.205,3412.02L973.205,3411.18Z" style="fill:rgb(21,21,21);fill-rule:nonzero;"/>
                    <path d="M980.158,3418L980.158,3404.4L982.232,3404.4L982.232,3406.34C983.231,3404.84 984.673,3404.09 986.56,3404.09C987.38,3404.09 988.133,3404.24 988.82,3404.54C989.507,3404.83 990.022,3405.22 990.363,3405.69C990.705,3406.17 990.944,3406.74 991.08,3407.4C991.166,3407.82 991.208,3408.57 991.208,3409.64L991.208,3418L988.903,3418L988.903,3409.73C988.903,3408.79 988.814,3408.09 988.634,3407.62C988.455,3407.16 988.137,3406.78 987.68,3406.51C987.224,3406.23 986.688,3406.09 986.073,3406.09C985.092,3406.09 984.244,3406.4 983.532,3407.03C982.819,3407.65 982.462,3408.83 982.462,3410.57L982.462,3418L980.158,3418Z" style="fill:rgb(21,21,21);fill-rule:nonzero;"/>
                    <path d="M1004.67,3416.32C1003.81,3417.05 1002.99,3417.56 1002.2,3417.86C1001.41,3418.16 1000.56,3418.31 999.658,3418.31C998.165,3418.31 997.016,3417.94 996.214,3417.21C995.411,3416.48 995.01,3415.55 995.01,3414.41C995.01,3413.75 995.162,3413.14 995.465,3412.59C995.768,3412.04 996.165,3411.6 996.656,3411.26C997.147,3410.93 997.699,3410.68 998.314,3410.51C998.766,3410.39 999.449,3410.27 1000.36,3410.16C1002.22,3409.94 1003.59,3409.68 1004.47,3409.37C1004.48,3409.05 1004.49,3408.85 1004.49,3408.77C1004.49,3407.83 1004.27,3407.17 1003.83,3406.78C1003.24,3406.26 1002.37,3406 1001.21,3406C1000.12,3406 999.323,3406.19 998.807,3406.57C998.29,3406.95 997.908,3407.62 997.661,3408.59L995.407,3408.28C995.612,3407.32 995.949,3406.54 996.419,3405.94C996.888,3405.35 997.567,3404.89 998.455,3404.57C999.343,3404.25 1000.37,3404.09 1001.54,3404.09C1002.7,3404.09 1003.64,3404.23 1004.37,3404.5C1005.1,3404.78 1005.63,3405.12 1005.97,3405.53C1006.31,3405.95 1006.55,3406.47 1006.69,3407.1C1006.76,3407.5 1006.8,3408.2 1006.8,3409.23L1006.8,3412.3C1006.8,3414.44 1006.85,3415.8 1006.95,3416.37C1007.05,3416.93 1007.24,3417.48 1007.53,3418L1005.13,3418C1004.89,3417.52 1004.73,3416.96 1004.67,3416.32ZM1004.47,3411.18C1003.64,3411.52 1002.38,3411.81 1000.71,3412.05C999.761,3412.18 999.091,3412.34 998.698,3412.51C998.305,3412.68 998.002,3412.93 997.789,3413.26C997.576,3413.58 997.469,3413.95 997.469,3414.35C997.469,3414.97 997.701,3415.48 998.167,3415.89C998.632,3416.3 999.313,3416.5 1000.21,3416.5C1001.1,3416.5 1001.89,3416.31 1002.58,3415.92C1003.27,3415.53 1003.78,3415 1004.1,3414.33C1004.35,3413.8 1004.47,3413.04 1004.47,3412.02L1004.47,3411.18Z" style="fill:rgb(21,21,21);fill-rule:nonzero;"/>
                    <rect x="1010.53" y="3410.05" width="7.081" height="2.318" style="fill:rgb(21,21,21);fill-rule:nonzero;"/>
                    <path d="M1020.28,3413.94L1022.56,3413.58C1022.69,3414.5 1023.05,3415.2 1023.63,3415.68C1024.22,3416.17 1025.04,3416.41 1026.09,3416.41C1027.14,3416.41 1027.93,3416.2 1028.44,3415.77C1028.95,3415.33 1029.21,3414.83 1029.21,3414.25C1029.21,3413.73 1028.98,3413.32 1028.53,3413.02C1028.22,3412.81 1027.43,3412.55 1026.17,3412.24C1024.49,3411.81 1023.31,3411.44 1022.66,3411.13C1022.01,3410.82 1021.51,3410.39 1021.18,3409.84C1020.84,3409.29 1020.67,3408.68 1020.67,3408.01C1020.67,3407.41 1020.81,3406.85 1021.09,3406.33C1021.36,3405.81 1021.74,3405.38 1022.22,3405.04C1022.58,3404.78 1023.07,3404.55 1023.69,3404.37C1024.3,3404.19 1024.97,3404.09 1025.68,3404.09C1026.74,3404.09 1027.68,3404.25 1028.49,3404.56C1029.29,3404.86 1029.89,3405.28 1030.27,3405.8C1030.66,3406.33 1030.92,3407.03 1031.07,3407.91L1028.81,3408.22C1028.71,3407.52 1028.41,3406.97 1027.92,3406.58C1027.43,3406.18 1026.74,3405.99 1025.84,3405.99C1024.78,3405.99 1024.03,3406.16 1023.58,3406.51C1023.12,3406.86 1022.9,3407.27 1022.9,3407.74C1022.9,3408.04 1022.99,3408.31 1023.18,3408.55C1023.37,3408.8 1023.66,3409 1024.06,3409.16C1024.29,3409.25 1024.97,3409.45 1026.1,3409.75C1027.73,3410.19 1028.87,3410.55 1029.51,3410.82C1030.16,3411.1 1030.66,3411.5 1031.03,3412.03C1031.4,3412.56 1031.58,3413.22 1031.58,3414.01C1031.58,3414.77 1031.36,3415.5 1030.91,3416.18C1030.46,3416.85 1029.81,3417.38 1028.97,3417.75C1028.12,3418.12 1027.17,3418.31 1026.1,3418.31C1024.33,3418.31 1022.99,3417.94 1022.06,3417.21C1021.13,3416.47 1020.54,3415.38 1020.28,3413.94Z" style="fill:rgb(21,21,21);fill-rule:nonzero;"/>
                    <path d="M1044.24,3413.02L1046.51,3413.31C1046.26,3414.88 1045.63,3416.1 1044.61,3416.98C1043.59,3417.87 1042.33,3418.31 1040.85,3418.31C1038.99,3418.31 1037.49,3417.7 1036.36,3416.48C1035.23,3415.27 1034.66,3413.52 1034.66,3411.25C1034.66,3409.78 1034.91,3408.5 1035.39,3407.4C1035.88,3406.3 1036.62,3405.47 1037.62,3404.92C1038.61,3404.37 1039.69,3404.09 1040.86,3404.09C1042.34,3404.09 1043.55,3404.47 1044.49,3405.21C1045.42,3405.96 1046.03,3407.02 1046.29,3408.4L1044.05,3408.74C1043.84,3407.83 1043.46,3407.14 1042.92,3406.68C1042.38,3406.22 1041.72,3405.99 1040.95,3405.99C1039.79,3405.99 1038.85,3406.41 1038.12,3407.24C1037.4,3408.07 1037.03,3409.39 1037.03,3411.19C1037.03,3413.01 1037.38,3414.34 1038.08,3415.17C1038.78,3416 1039.7,3416.41 1040.82,3416.41C1041.73,3416.41 1042.48,3416.14 1043.09,3415.58C1043.7,3415.03 1044.08,3414.17 1044.24,3413.02Z" style="fill:rgb(21,21,21);fill-rule:nonzero;"/>
                    <path d="M1049.53,3418L1049.53,3399.23L1051.84,3399.23L1051.84,3405.96C1052.91,3404.72 1054.27,3404.09 1055.91,3404.09C1056.91,3404.09 1057.79,3404.29 1058.53,3404.69C1059.27,3405.09 1059.81,3405.64 1060.13,3406.34C1060.45,3407.03 1060.61,3408.05 1060.61,3409.38L1060.61,3418L1058.3,3418L1058.3,3409.38C1058.3,3408.23 1058.05,3407.39 1057.55,3406.87C1057.05,3406.34 1056.35,3406.08 1055.43,3406.08C1054.75,3406.08 1054.11,3406.26 1053.51,3406.61C1052.9,3406.96 1052.47,3407.44 1052.22,3408.05C1051.96,3408.66 1051.84,3409.49 1051.84,3410.56L1051.84,3418L1049.53,3418Z" style="fill:rgb(21,21,21);fill-rule:nonzero;"/>
                    <path d="M1064.31,3411.2C1064.31,3408.68 1065.01,3406.82 1066.41,3405.61C1067.58,3404.6 1069,3404.09 1070.68,3404.09C1072.55,3404.09 1074.08,3404.71 1075.27,3405.93C1076.45,3407.16 1077.05,3408.85 1077.05,3411.01C1077.05,3412.76 1076.78,3414.14 1076.26,3415.14C1075.73,3416.14 1074.97,3416.92 1073.97,3417.47C1072.96,3418.03 1071.87,3418.31 1070.68,3418.31C1068.78,3418.31 1067.24,3417.7 1066.07,3416.48C1064.89,3415.26 1064.31,3413.5 1064.31,3411.2ZM1066.67,3411.2C1066.67,3412.94 1067.05,3414.25 1067.81,3415.11C1068.57,3415.98 1069.53,3416.41 1070.68,3416.41C1071.83,3416.41 1072.78,3415.98 1073.54,3415.11C1074.3,3414.24 1074.68,3412.91 1074.68,3411.12C1074.68,3409.44 1074.3,3408.17 1073.53,3407.3C1072.77,3406.43 1071.82,3406 1070.68,3406C1069.53,3406 1068.57,3406.43 1067.81,3407.3C1067.05,3408.16 1066.67,3409.46 1066.67,3411.2Z" style="fill:rgb(21,21,21);fill-rule:nonzero;"/>
                    <path d="M1079.94,3411.2C1079.94,3408.68 1080.64,3406.82 1082.04,3405.61C1083.21,3404.6 1084.63,3404.09 1086.32,3404.09C1088.19,3404.09 1089.71,3404.71 1090.9,3405.93C1092.09,3407.16 1092.68,3408.85 1092.68,3411.01C1092.68,3412.76 1092.42,3414.14 1091.89,3415.14C1091.37,3416.14 1090.6,3416.92 1089.6,3417.47C1088.6,3418.03 1087.5,3418.31 1086.32,3418.31C1084.41,3418.31 1082.87,3417.7 1081.7,3416.48C1080.53,3415.26 1079.94,3413.5 1079.94,3411.2ZM1082.31,3411.2C1082.31,3412.94 1082.69,3414.25 1083.45,3415.11C1084.21,3415.98 1085.16,3416.41 1086.32,3416.41C1087.46,3416.41 1088.41,3415.98 1089.17,3415.11C1089.93,3414.24 1090.31,3412.91 1090.31,3411.12C1090.31,3409.44 1089.93,3408.17 1089.16,3407.3C1088.4,3406.43 1087.45,3406 1086.32,3406C1085.16,3406 1084.21,3406.43 1083.45,3407.3C1082.69,3408.16 1082.31,3409.46 1082.31,3411.2Z" style="fill:rgb(21,21,21);fill-rule:nonzero;"/>
                    <rect x="1096.38" y="3399.23" width="2.305" height="18.772" style="fill:rgb(21,21,21);fill-rule:nonzero;"/>
                </g>
            </g>
        </g>
        <g transform="matrix(1,0,0,3.26767,0,0)">
            <g id="nav_logo" transform="matrix(0.302658,0,0,0.0926219,895.922,1044.18)">
                <g transform="matrix(1,0,0,1,-77.5,-77.5)">
                    <clipPath id="_clip1">
                        <rect x="0" y="0" width="155" height="155"/>
                    </clipPath>
                    <g clip-path="url(#_clip1)">
                        <g transform="matrix(0.829051,0,0,2.70907,-724.16,-57.8511)">
                            <g transform="matrix(1.2062,0,0,0.369131,873.481,21.3546)">
                                <path d="M77.5,7.825L0.366,84.959C0.121,82.507 0.001,80.017 0.001,77.5L0.071,74.711L74.711,0.071L77.5,0C79.298,0 81.082,0.061 82.848,0.186C123.16,2.961 155.001,36.541 155.001,77.5C155.001,120.254 120.308,154.969 77.5,155L77.5,154.999L77.5,154.999C74.724,154.999 71.981,154.853 69.265,154.558L77.5,146.323L77.5,118.882L85.821,118.882L85.821,98.868L39.605,145.083C37.38,143.833 35.224,142.476 33.134,141.01L85.821,88.324L85.821,84.162L116.253,36.118L98.889,36.118L94.36,40.647L77.917,68.863L77.5,68.162L77.5,57.507L13.637,121.37C12.189,119.269 10.842,117.094 9.607,114.857L77.5,46.963L77.5,7.825Z" style="fill:rgb(135,40,251);"/>
                            </g>
                            <g transform="matrix(1,0,0,0.306028,-46.575,-0.226354)">
                                <path d="M1003.39,214L1003.39,171.913L966.757,114L990.427,114L1013.96,153.563L1037.02,114L1060.28,114L1023.51,172.049L1023.51,214L1003.39,214Z" style="fill:white;fill-rule:nonzero;"/>
                            </g>
                        </g>
                    </g>
                </g>
            </g>
        </g>
    </g>
</svg>
