<?xml version="1.0" encoding="UTF-8" standalone="no"?>
<!DOCTYPE svg PUBLIC "-//W3C//DTD SVG 1.1//EN" "http://www.w3.org/Graphics/SVG/1.1/DTD/svg11.dtd">
<svg width="100%" height="100%" viewBox="0 0 161 236" version="1.1" xmlns="http://www.w3.org/2000/svg" xmlns:xlink="http://www.w3.org/1999/xlink" xml:space="preserve" xmlns:serif="http://www.serif.com/" style="fill-rule:evenodd;clip-rule:evenodd;stroke-linejoin:round;stroke-miterlimit:1.41421;">
    <g transform="matrix(1,0,0,1,-959.984,2.44249e-14)">
        <g transform="matrix(1,0,0,3.26767,0,0)">
            <g transform="matrix(1,0,0,1,0,-142.304)">
                <g transform="matrix(0.26567,-7.51292e-18,-4.13242e-17,0.0813026,951.482,141.085)">
                    <circle cx="50.5" cy="33.5" r="18.5" style="fill:rgb(0,196,253);fill-opacity:0.352941;"/>
                </g>
                <g transform="matrix(0.26567,-7.51292e-18,-4.13242e-17,0.0813026,989.046,141.085)">
                    <circle cx="50.5" cy="33.5" r="18.5" style="fill:rgb(0,196,253);fill-opacity:0.352941;"/>
                </g>
                <g transform="matrix(0.26567,-7.51292e-18,-4.13242e-17,0.0813026,1064.17,141.085)">
                    <circle cx="50.5" cy="33.5" r="18.5" style="fill:rgb(0,196,253);fill-opacity:0.352941;"/>
                </g>
                <g transform="matrix(0.26567,-7.51292e-18,-4.13242e-17,0.0813026,1101.74,141.085)">
                    <circle cx="50.5" cy="33.5" r="18.5" style="fill:rgb(0,196,253);fill-opacity:0.352941;"/>
                </g>
                <g transform="matrix(0.26567,-7.51292e-18,-4.13242e-17,0.0813026,1026.61,141.085)">
                    <circle cx="50.5" cy="33.5" r="18.5" style="fill:rgb(0,196,253);fill-opacity:0.352941;"/>
                </g>
                <g transform="matrix(0.26567,-7.51292e-18,-4.13242e-17,0.0813026,951.482,164.076)">
                    <circle cx="50.5" cy="33.5" r="18.5" style="fill:rgb(0,196,253);fill-opacity:0.352941;"/>
                </g>
                <g transform="matrix(0.26567,-7.51292e-18,-4.13242e-17,0.0813026,989.046,164.076)">
                    <circle cx="50.5" cy="33.5" r="18.5" style="fill:rgb(0,196,253);fill-opacity:0.352941;"/>
                </g>
                <g transform="matrix(0.26567,-7.51292e-18,-4.13242e-17,0.0813026,1064.17,164.076)">
                    <circle cx="50.5" cy="33.5" r="18.5" style="fill:rgb(0,196,253);fill-opacity:0.352941;"/>
                </g>
                <g transform="matrix(0.26567,-7.51292e-18,-4.13242e-17,0.0813026,1101.74,164.076)">
                    <circle cx="50.5" cy="33.5" r="18.5" style="fill:rgb(0,196,253);fill-opacity:0.352941;"/>
                </g>
                <g transform="matrix(0.26567,-7.51292e-18,-4.13242e-17,0.0813026,1026.61,164.076)">
                    <circle cx="50.5" cy="33.5" r="18.5" style="fill:rgb(0,196,253);fill-opacity:0.352941;"/>
                </g>
                <g transform="matrix(0.26567,-7.51292e-18,-4.13242e-17,0.0813026,951.482,152.58)">
                    <circle cx="50.5" cy="33.5" r="18.5" style="fill:rgb(0,196,253);fill-opacity:0.352941;"/>
                </g>
                <g transform="matrix(0.26567,-7.51292e-18,-4.13242e-17,0.0813026,989.046,152.58)">
                    <circle cx="50.5" cy="33.5" r="18.5" style="fill:rgb(0,196,253);fill-opacity:0.352941;"/>
                </g>
                <g transform="matrix(0.26567,-7.51292e-18,-4.13242e-17,0.0813026,1064.17,152.58)">
                    <circle cx="50.5" cy="33.5" r="18.5" style="fill:rgb(0,196,253);fill-opacity:0.352941;"/>
                </g>
                <g transform="matrix(0.26567,-7.51292e-18,-4.13242e-17,0.0813026,1101.74,152.58)">
                    <circle cx="50.5" cy="33.5" r="18.5" style="fill:rgb(0,196,253);fill-opacity:0.352941;"/>
                </g>
                <g transform="matrix(0.26567,-7.51292e-18,-4.13242e-17,0.0813026,1026.61,152.58)">
                    <circle cx="50.5" cy="33.5" r="18.5" style="fill:rgb(0,196,253);fill-opacity:0.352941;"/>
                </g>
                <g transform="matrix(0.26567,-7.51292e-18,-4.13242e-17,0.0813026,951.482,175.571)">
                    <circle cx="50.5" cy="33.5" r="18.5" style="fill:rgb(0,196,253);fill-opacity:0.352941;"/>
                </g>
                <g transform="matrix(0.26567,-7.51292e-18,-4.13242e-17,0.0813026,989.046,175.571)">
                    <circle cx="50.5" cy="33.5" r="18.5" style="fill:rgb(0,196,253);fill-opacity:0.352941;"/>
                </g>
                <g transform="matrix(0.26567,-7.51292e-18,-4.13242e-17,0.0813026,1064.17,175.571)">
                    <circle cx="50.5" cy="33.5" r="18.5" style="fill:rgb(0,196,253);fill-opacity:0.352941;"/>
                </g>
                <g transform="matrix(0.26567,-7.51292e-18,-4.13242e-17,0.0813026,1101.74,175.571)">
                    <circle cx="50.5" cy="33.5" r="18.5" style="fill:rgb(0,196,253);fill-opacity:0.352941;"/>
                </g>
                <g transform="matrix(0.26567,-7.51292e-18,-4.13242e-17,0.0813026,1026.61,175.571)">
                    <circle cx="50.5" cy="33.5" r="18.5" style="fill:rgb(0,196,253);fill-opacity:0.352941;"/>
                </g>
                <g transform="matrix(0.26567,-7.51292e-18,-4.13242e-17,0.0813026,951.482,187.067)">
                    <circle cx="50.5" cy="33.5" r="18.5" style="fill:rgb(0,196,253);fill-opacity:0.352941;"/>
                </g>
                <g transform="matrix(0.26567,-7.51292e-18,-4.13242e-17,0.0813026,989.046,187.067)">
                    <circle cx="50.5" cy="33.5" r="18.5" style="fill:rgb(0,196,253);fill-opacity:0.352941;"/>
                </g>
                <g transform="matrix(0.26567,-7.51292e-18,-4.13242e-17,0.0813026,1064.17,187.067)">
                    <circle cx="50.5" cy="33.5" r="18.5" style="fill:rgb(0,196,253);fill-opacity:0.352941;"/>
                </g>
                <g transform="matrix(0.26567,-7.51292e-18,-4.13242e-17,0.0813026,1101.74,187.067)">
                    <circle cx="50.5" cy="33.5" r="18.5" style="fill:rgb(0,196,253);fill-opacity:0.352941;"/>
                </g>
                <g transform="matrix(0.26567,-7.51292e-18,-4.13242e-17,0.0813026,1026.61,187.067)">
                    <circle cx="50.5" cy="33.5" r="18.5" style="fill:rgb(0,196,253);fill-opacity:0.352941;"/>
                </g>
                <g transform="matrix(0.26567,-7.51292e-18,-4.13242e-17,0.0813026,951.482,210.058)">
                    <circle cx="50.5" cy="33.5" r="18.5" style="fill:rgb(0,196,253);fill-opacity:0.352941;"/>
                </g>
                <g transform="matrix(0.26567,-7.51292e-18,-4.13242e-17,0.0813026,989.046,210.058)">
                    <circle cx="50.5" cy="33.5" r="18.5" style="fill:rgb(0,196,253);fill-opacity:0.352941;"/>
                </g>
                <g transform="matrix(0.26567,-7.51292e-18,-4.13242e-17,0.0813026,1064.17,210.058)">
                    <circle cx="50.5" cy="33.5" r="18.5" style="fill:rgb(0,196,253);fill-opacity:0.352941;"/>
                </g>
                <g transform="matrix(0.26567,-7.51292e-18,-4.13242e-17,0.0813026,1101.74,210.058)">
                    <circle cx="50.5" cy="33.5" r="18.5" style="fill:rgb(0,196,253);fill-opacity:0.352941;"/>
                </g>
                <g transform="matrix(0.26567,-7.51292e-18,-4.13242e-17,0.0813026,1026.61,210.058)">
                    <circle cx="50.5" cy="33.5" r="18.5" style="fill:rgb(0,196,253);fill-opacity:0.352941;"/>
                </g>
                <g transform="matrix(0.26567,-7.51292e-18,-4.13242e-17,0.0813026,951.482,198.563)">
                    <circle cx="50.5" cy="33.5" r="18.5" style="fill:rgb(0,196,253);fill-opacity:0.352941;"/>
                </g>
                <g transform="matrix(0.26567,-7.51292e-18,-4.13242e-17,0.0813026,989.046,198.563)">
                    <circle cx="50.5" cy="33.5" r="18.5" style="fill:rgb(0,196,253);fill-opacity:0.352941;"/>
                </g>
                <g transform="matrix(0.26567,-7.51292e-18,-4.13242e-17,0.0813026,1064.17,198.563)">
                    <circle cx="50.5" cy="33.5" r="18.5" style="fill:rgb(0,196,253);fill-opacity:0.352941;"/>
                </g>
                <g transform="matrix(0.26567,-7.51292e-18,-4.13242e-17,0.0813026,1101.74,198.563)">
                    <circle cx="50.5" cy="33.5" r="18.5" style="fill:rgb(0,196,253);fill-opacity:0.352941;"/>
                </g>
                <g transform="matrix(0.26567,-7.51292e-18,-4.13242e-17,0.0813026,1026.61,198.563)">
                    <circle cx="50.5" cy="33.5" r="18.5" style="fill:rgb(0,196,253);fill-opacity:0.352941;"/>
                </g>
            </g>
        </g>
    </g>
</svg>
