<?xml version="1.0" encoding="UTF-8" standalone="no"?>
<!DOCTYPE svg PUBLIC "-//W3C//DTD SVG 1.1//EN" "http://www.w3.org/Graphics/SVG/1.1/DTD/svg11.dtd">
<svg width="100%" height="100%" viewBox="0 0 155 155" version="1.1" xmlns="http://www.w3.org/2000/svg" xmlns:xlink="http://www.w3.org/1999/xlink" xml:space="preserve" xmlns:serif="http://www.serif.com/" style="fill-rule:evenodd;clip-rule:evenodd;stroke-linejoin:round;stroke-miterlimit:1.41421;">
    <g transform="matrix(0.829051,0,0,2.70907,-724.16,-57.8511)">
        <g transform="matrix(1.2062,0,0,0.369131,873.481,21.3546)">
            <path d="M77.5,7.825L0.366,84.959C0.121,82.507 0.001,80.017 0.001,77.5L0.071,74.711L74.711,0.071L77.5,0C79.298,0 81.082,0.061 82.848,0.186C123.16,2.961 155.001,36.541 155.001,77.5C155.001,120.254 120.308,154.969 77.5,155L77.5,154.999L77.5,154.999C74.724,154.999 71.981,154.853 69.265,154.558L77.5,146.323L77.5,118.882L85.821,118.882L85.821,98.868L39.605,145.083C37.38,143.833 35.224,142.476 33.134,141.01L85.821,88.324L85.821,84.162L116.253,36.118L98.889,36.118L94.36,40.647L77.917,68.863L77.5,68.162L77.5,57.507L13.637,121.37C12.189,119.269 10.842,117.094 9.607,114.857L77.5,46.963L77.5,7.825Z" style="fill:rgb(135,40,251);"/>
        </g>
        <g transform="matrix(1,0,0,0.306028,-46.575,-0.226354)">
            <path d="M1003.39,214L1003.39,171.913L966.757,114L990.427,114L1013.96,153.563L1037.02,114L1060.28,114L1023.51,172.049L1023.51,214L1003.39,214Z" style="fill:white;fill-rule:nonzero;"/>
        </g>
    </g>
</svg>
