<?xml version="1.0" encoding="UTF-8" standalone="no"?>
<!DOCTYPE svg PUBLIC "-//W3C//DTD SVG 1.1//EN" "http://www.w3.org/Graphics/SVG/1.1/DTD/svg11.dtd">
<svg width="100%" height="100%" viewBox="0 0 246 50" version="1.1" xmlns="http://www.w3.org/2000/svg" xmlns:xlink="http://www.w3.org/1999/xlink" xml:space="preserve" xmlns:serif="http://www.serif.com/" style="fill-rule:evenodd;clip-rule:evenodd;stroke-linejoin:round;stroke-miterlimit:1.41421;">
    <g transform="matrix(1,0,0,1,-837.069,-834.91)">
        <g transform="matrix(1,0,0,3.26767,0,0)">
            <g transform="matrix(1,0,0,0.306028,830.491,253.697)">
                <path d="M86.749,45.569C86.749,45.465 86.838,45.376 86.956,45.376L87.104,45.376C87.208,45.376 87.266,45.438 87.281,45.524L87.341,46.159C87.532,45.952 88.345,45.228 89.527,45.228C91.181,45.228 91.905,46.278 91.905,47.931L91.905,51.091C91.905,51.195 91.816,51.282 91.713,51.282L91.447,51.282C91.343,51.282 91.256,51.194 91.256,51.091L91.256,47.931C91.256,46.573 90.62,45.864 89.498,45.864C88.287,45.864 87.445,46.808 87.386,46.885L87.386,51.094C87.386,51.211 87.326,51.284 87.194,51.284L86.914,51.284C86.81,51.284 86.751,51.196 86.751,51.094L86.751,45.57L86.749,45.57L86.749,45.569Z" style="fill:rgb(150,51,252);fill-rule:nonzero;"/>
                <path d="M103.923,45.228C105.474,45.228 106.596,46.366 106.596,47.931C106.596,48.167 106.596,48.507 106.374,48.507L101.663,48.507C101.722,49.778 102.638,50.839 103.967,50.839C104.749,50.839 105.355,50.53 105.71,50.294C105.843,50.204 105.901,50.19 105.976,50.294L106.123,50.499C106.167,50.56 106.153,50.647 106.063,50.735C105.768,51.032 104.837,51.43 103.922,51.43C102.119,51.43 101.012,50.04 101.012,48.313C101.013,46.633 102.12,45.228 103.923,45.228ZM105.946,47.974C105.946,46.823 105.252,45.819 103.923,45.819C102.622,45.819 101.751,46.763 101.677,47.974L105.946,47.974Z" style="fill:rgb(150,51,252);fill-rule:nonzero;"/>
                <path d="M115.099,45.612C115.055,45.478 115.055,45.376 115.188,45.376L115.513,45.376C115.587,45.376 115.675,45.405 115.704,45.51L117.093,50.163L117.108,50.163L118.866,45.362C118.896,45.258 118.955,45.228 119.043,45.228L119.103,45.228C119.177,45.228 119.25,45.271 119.28,45.362L121.038,50.163L121.054,50.163L122.443,45.51C122.472,45.406 122.56,45.376 122.634,45.376L122.959,45.376C123.092,45.376 123.092,45.48 123.048,45.612L121.275,51.3C121.246,51.404 121.187,51.433 121.098,51.433L121.038,51.433C120.965,51.433 120.891,51.388 120.861,51.3L119.074,46.321L119.059,46.321L117.287,51.3C117.257,51.388 117.183,51.433 117.109,51.433L117.05,51.433C116.961,51.433 116.903,51.404 116.872,51.3L115.099,45.612Z" style="fill:rgb(150,51,252);fill-rule:nonzero;"/>
                <path d="M131.149,45.612C131.089,45.495 131.104,45.376 131.237,45.376L131.562,45.376C131.635,45.376 131.709,45.422 131.754,45.51L134.279,50.501L134.308,50.501L136.613,45.51C136.656,45.422 136.73,45.376 136.803,45.376L137.128,45.376C137.261,45.376 137.274,45.495 137.217,45.612L132.578,55.597C132.549,55.669 132.461,55.714 132.387,55.714L132.047,55.714C131.929,55.714 131.885,55.64 131.943,55.507L133.937,51.224L131.149,45.612Z" style="fill:rgb(150,51,252);fill-rule:nonzero;"/>
                <path d="M148.499,45.228C150.152,45.228 151.468,46.63 151.468,48.314C151.468,50.044 150.155,51.431 148.499,51.431C146.83,51.431 145.529,50.042 145.529,48.314C145.529,46.633 146.83,45.228 148.499,45.228ZM148.499,50.827C149.8,50.827 150.818,49.721 150.818,48.315C150.818,46.956 149.798,45.847 148.499,45.847C147.186,45.847 146.165,46.954 146.165,48.315C146.165,49.721 147.186,50.827 148.499,50.827Z" style="fill:rgb(150,51,252);fill-rule:nonzero;"/>
                <path d="M160.649,45.569C160.649,45.465 160.739,45.376 160.841,45.376L161.02,45.376C161.108,45.376 161.181,45.438 161.196,45.538L161.257,46.144C161.403,45.937 161.995,45.228 163.103,45.228C163.576,45.228 163.902,45.362 164.019,45.405C164.152,45.45 164.226,45.552 164.181,45.674L164.064,45.969C164.019,46.073 163.93,46.085 163.828,46.042C163.755,46.012 163.459,45.864 163.06,45.864C161.908,45.864 161.345,46.795 161.301,46.885L161.301,51.094C161.301,51.211 161.241,51.284 161.109,51.284L160.814,51.284C160.71,51.284 160.652,51.196 160.652,51.094L160.652,45.57L160.649,45.57L160.649,45.569Z" style="fill:rgb(150,51,252);fill-rule:nonzero;"/>
                <path d="M172.816,41.138C172.816,41.034 172.904,40.947 173.007,40.947L173.258,40.947C173.362,40.947 173.45,41.035 173.45,41.138L173.45,47.755L176.596,45.466C176.669,45.404 176.758,45.375 176.832,45.375L177.26,45.375C177.407,45.375 177.422,45.568 177.306,45.642L174.129,47.976L177.689,51.035C177.808,51.139 177.734,51.285 177.615,51.285L177.158,51.285C177.07,51.285 176.996,51.271 176.863,51.168L173.451,48.229L173.451,51.094C173.451,51.211 173.39,51.285 173.259,51.285L172.979,51.285C172.875,51.285 172.817,51.197 172.817,51.094L172.817,41.138L172.816,41.138Z" style="fill:rgb(150,51,252);fill-rule:nonzero;"/>
                <path d="M63.084,18.133C63.084,24.426 57.968,29.541 51.677,29.541C45.386,29.541 40.267,24.426 40.267,18.133C40.267,11.843 45.386,6.724 51.677,6.724C57.968,6.724 63.084,11.843 63.084,18.133ZM48.255,10.016C47.209,10.471 46.265,11.092 45.45,11.907C44.635,12.725 44.015,13.667 43.559,14.71C43.103,15.786 42.874,16.964 42.874,18.133C42.874,19.307 43.103,20.483 43.559,21.557C44.015,22.6 44.634,23.545 45.45,24.36C46.264,25.173 47.209,25.795 48.255,26.256C49.327,26.708 50.47,26.938 51.677,26.938C52.849,26.938 54.024,26.709 55.099,26.256C56.143,25.795 57.087,25.176 57.903,24.36C58.717,23.546 59.336,22.6 59.792,21.557C60.249,20.483 60.478,19.307 60.478,18.133C60.478,16.964 60.249,15.786 59.792,14.71C59.336,13.667 58.718,12.726 57.903,11.907C57.088,11.093 56.143,10.471 55.099,10.016C54.024,9.559 52.849,9.33 51.677,9.33C50.47,9.331 49.327,9.559 48.255,10.016Z" style="fill:rgb(150,51,252);fill-rule:nonzero;"/>
                <path d="M117.975,6.212L117.517,6.212L107.505,29.191L110.46,29.191L111.869,25.933L123.622,25.933L125.031,29.191L127.986,29.191L117.975,6.212ZM113.045,23.248L117.745,12.404L122.446,23.248L113.045,23.248Z" style="fill:rgb(150,51,252);fill-rule:nonzero;"/>
                <path d="M94.393,19.246C94.294,20.041 94.097,20.822 93.786,21.557C93.33,22.6 92.712,23.545 91.897,24.36C91.082,25.173 90.137,25.795 89.093,26.256C88.018,26.708 86.843,26.938 85.671,26.938C84.464,26.938 83.321,26.709 82.249,26.256C81.203,25.795 80.259,25.176 79.444,24.36C78.629,23.546 78.009,22.6 77.553,21.557C77.097,20.483 76.868,19.307 76.868,18.133C76.868,16.964 77.097,15.786 77.553,14.71C78.009,13.667 78.628,12.726 79.444,11.907C80.258,11.093 81.203,10.471 82.249,10.016C83.321,9.559 84.464,9.33 85.671,9.33C86.843,9.33 88.018,9.559 89.093,10.016C90.137,10.471 91.081,11.092 91.897,11.907C92.345,12.358 92.729,12.849 93.065,13.371L96.024,13.371C94.215,9.455 90.261,6.724 85.671,6.724C79.38,6.724 74.261,11.843 74.261,18.133C74.261,24.426 79.38,29.541 85.671,29.541C91.586,29.541 96.46,25.018 97.022,19.246L94.393,19.246Z" style="fill:rgb(150,51,252);fill-rule:nonzero;"/>
                <path d="M95.922,21.84L86.438,21.84L86.438,19.215L96.953,19.246L95.922,21.84Z" style="fill:rgb(150,51,252);fill-rule:nonzero;"/>
                <g>
                    <path d="M163.225,5.91L152.042,16.447L140.859,5.91L140.214,5.91L140.214,29.189L142.839,29.189L142.839,11.41L152.003,20.08L161.266,11.388L161.266,29.189L163.872,29.189L163.872,5.91L163.225,5.91Z" style="fill:rgb(150,51,252);fill-rule:nonzero;"/>
                    <path d="M146.042,22.127L155.195,13.515L156.995,15.396L147.936,23.881L146.042,22.127Z" style="fill:rgb(150,51,252);fill-rule:nonzero;"/>
                    <path d="M145.967,29.189L161.427,14.646L163.225,16.558L149.797,29.189L145.967,29.189Z" style="fill:rgb(150,51,252);fill-rule:nonzero;"/>
                    <path d="M148.697,21.013L141.365,14.116L140.953,17.331L146.899,22.926L148.697,21.013Z" style="fill:rgb(150,51,252);fill-rule:nonzero;"/>
                </g>
                <path d="M186.352,6.212L185.895,6.212L175.883,29.191L178.838,29.191L180.246,25.933L192,25.933L193.408,29.191L196.363,29.191L186.352,6.212ZM181.422,23.248L186.123,12.404L190.824,23.248L181.422,23.248Z" style="fill:rgb(150,51,252);fill-rule:nonzero;"/>
                <path d="M242.43,6.212L241.972,6.212L231.96,29.191L234.915,29.191L236.324,25.933L248.077,25.933L249.486,29.191L252.44,29.191L242.43,6.212ZM237.5,23.248L242.199,12.404L246.9,23.248L237.5,23.248Z" style="fill:rgb(150,51,252);fill-rule:nonzero;"/>
                <g transform="matrix(0.736293,0,0,0.736293,-93.0703,-226.917)">
                    <g transform="matrix(-0.458046,-0.673789,0.827,-0.5622,144.632,342.516)">
                        <rect x="3.044" y="10.985" width="21.974" height="2.804" style="fill:rgb(150,51,252);"/>
                    </g>
                    <g transform="matrix(-0.475798,-0.699777,0.827,-0.5623,146.992,342.808)">
                        <rect x="0.299" y="3.477" width="30.238" height="2.804" style="fill:rgb(150,51,252);"/>
                    </g>
                </g>
                <g transform="matrix(-0.324222,-0.476849,0.608914,-0.414017,209.465,25.4511)">
                    <rect x="0.299" y="3.477" width="30.238" height="2.804" style="fill:rgb(150,51,252);"/>
                </g>
                <g transform="matrix(0.736293,0,0,0.736293,4.65202,4.32302)">
                    <path d="M9.092,34.836L30.367,4.046L32.666,5.651L12.759,34.836L9.092,34.836Z" style="fill:rgb(150,51,252);fill-rule:nonzero;"/>
                </g>
                <g transform="matrix(0.736293,0,0,0.736293,56.0535,4.29578)">
                    <path d="M203.759,34.873L225.034,4.083L227.333,5.688L207.426,34.873L203.759,34.873Z" style="fill:rgb(150,51,252);fill-rule:nonzero;"/>
                </g>
                <g>
                    <path d="M86.749,45.569C86.749,45.465 86.838,45.376 86.956,45.376L87.104,45.376C87.208,45.376 87.266,45.438 87.281,45.524L87.341,46.159C87.532,45.952 88.345,45.228 89.527,45.228C91.181,45.228 91.905,46.278 91.905,47.931L91.905,51.091C91.905,51.195 91.816,51.282 91.713,51.282L91.447,51.282C91.343,51.282 91.256,51.194 91.256,51.091L91.256,47.931C91.256,46.573 90.62,45.864 89.498,45.864C88.287,45.864 87.445,46.808 87.386,46.885L87.386,51.094C87.386,51.211 87.326,51.284 87.194,51.284L86.914,51.284C86.81,51.284 86.751,51.196 86.751,51.094L86.751,45.57L86.749,45.57L86.749,45.569Z" style="fill:rgb(150,51,252);fill-rule:nonzero;"/>
                    <path d="M103.923,45.228C105.474,45.228 106.596,46.366 106.596,47.931C106.596,48.167 106.596,48.507 106.374,48.507L101.663,48.507C101.722,49.778 102.638,50.839 103.967,50.839C104.749,50.839 105.355,50.53 105.71,50.294C105.843,50.204 105.901,50.19 105.976,50.294L106.123,50.499C106.167,50.56 106.153,50.647 106.063,50.735C105.768,51.032 104.837,51.43 103.922,51.43C102.119,51.43 101.012,50.04 101.012,48.313C101.013,46.633 102.12,45.228 103.923,45.228ZM105.946,47.974C105.946,46.823 105.252,45.819 103.923,45.819C102.622,45.819 101.751,46.763 101.677,47.974L105.946,47.974Z" style="fill:rgb(150,51,252);fill-rule:nonzero;"/>
                    <path d="M115.099,45.612C115.055,45.478 115.055,45.376 115.188,45.376L115.513,45.376C115.587,45.376 115.675,45.405 115.704,45.51L117.093,50.163L117.108,50.163L118.866,45.362C118.896,45.258 118.955,45.228 119.043,45.228L119.103,45.228C119.177,45.228 119.25,45.271 119.28,45.362L121.038,50.163L121.054,50.163L122.443,45.51C122.472,45.406 122.56,45.376 122.634,45.376L122.959,45.376C123.092,45.376 123.092,45.48 123.048,45.612L121.275,51.3C121.246,51.404 121.187,51.433 121.098,51.433L121.038,51.433C120.965,51.433 120.891,51.388 120.861,51.3L119.074,46.321L119.059,46.321L117.287,51.3C117.257,51.388 117.183,51.433 117.109,51.433L117.05,51.433C116.961,51.433 116.903,51.404 116.872,51.3L115.099,45.612Z" style="fill:rgb(150,51,252);fill-rule:nonzero;"/>
                    <path d="M131.149,45.612C131.089,45.495 131.104,45.376 131.237,45.376L131.562,45.376C131.635,45.376 131.709,45.422 131.754,45.51L134.279,50.501L134.308,50.501L136.613,45.51C136.656,45.422 136.73,45.376 136.803,45.376L137.128,45.376C137.261,45.376 137.274,45.495 137.217,45.612L132.578,55.597C132.549,55.669 132.461,55.714 132.387,55.714L132.047,55.714C131.929,55.714 131.885,55.64 131.943,55.507L133.937,51.224L131.149,45.612Z" style="fill:rgb(150,51,252);fill-rule:nonzero;"/>
                    <path d="M148.499,45.228C150.152,45.228 151.468,46.63 151.468,48.314C151.468,50.044 150.155,51.431 148.499,51.431C146.83,51.431 145.529,50.042 145.529,48.314C145.529,46.633 146.83,45.228 148.499,45.228ZM148.499,50.827C149.8,50.827 150.818,49.721 150.818,48.315C150.818,46.956 149.798,45.847 148.499,45.847C147.186,45.847 146.165,46.954 146.165,48.315C146.165,49.721 147.186,50.827 148.499,50.827Z" style="fill:rgb(150,51,252);fill-rule:nonzero;"/>
                    <path d="M160.649,45.569C160.649,45.465 160.739,45.376 160.841,45.376L161.02,45.376C161.108,45.376 161.181,45.438 161.196,45.538L161.257,46.144C161.403,45.937 161.995,45.228 163.103,45.228C163.576,45.228 163.902,45.362 164.019,45.405C164.152,45.45 164.226,45.552 164.181,45.674L164.064,45.969C164.019,46.073 163.93,46.085 163.828,46.042C163.755,46.012 163.459,45.864 163.06,45.864C161.908,45.864 161.345,46.795 161.301,46.885L161.301,51.094C161.301,51.211 161.241,51.284 161.109,51.284L160.814,51.284C160.71,51.284 160.652,51.196 160.652,51.094L160.652,45.57L160.649,45.57L160.649,45.569Z" style="fill:rgb(150,51,252);fill-rule:nonzero;"/>
                    <path d="M172.816,41.138C172.816,41.034 172.904,40.947 173.007,40.947L173.258,40.947C173.362,40.947 173.45,41.035 173.45,41.138L173.45,47.755L176.596,45.466C176.669,45.404 176.758,45.375 176.832,45.375L177.26,45.375C177.407,45.375 177.422,45.568 177.306,45.642L174.129,47.976L177.689,51.035C177.808,51.139 177.734,51.285 177.615,51.285L177.158,51.285C177.07,51.285 176.996,51.271 176.863,51.168L173.451,48.229L173.451,51.094C173.451,51.211 173.39,51.285 173.259,51.285L172.979,51.285C172.875,51.285 172.817,51.197 172.817,51.094L172.817,41.138L172.816,41.138Z" style="fill:rgb(150,51,252);fill-rule:nonzero;"/>
                </g>
            </g>
        </g>
    </g>
</svg>
