<?xml version="1.0" encoding="UTF-8" standalone="no"?>
<!DOCTYPE svg PUBLIC "-//W3C//DTD SVG 1.1//EN" "http://www.w3.org/Graphics/SVG/1.1/DTD/svg11.dtd">
<svg width="100%" height="100%" viewBox="0 0 33 33" version="1.1" xmlns="http://www.w3.org/2000/svg" xmlns:xlink="http://www.w3.org/1999/xlink" xml:space="preserve" xmlns:serif="http://www.serif.com/" style="fill-rule:evenodd;clip-rule:evenodd;stroke-linejoin:round;stroke-miterlimit:1.41421;">
    <g transform="matrix(1,0,0,1,-895.6,-3463.88)">
        <g transform="matrix(1,0,0,2.73907,0,576.73)">
            <g id="facebook-1-" serif:id="facebook(1)" transform="matrix(0.0786121,0,0,0.0287003,911.668,1059.93)">
                <g transform="matrix(1,0,0,1,-204.394,-204.394)">
                    <path d="M353.701,0L55.087,0C24.665,0 0.002,24.662 0.002,55.085L0.002,353.701C0.002,384.124 24.664,408.786 55.087,408.786L202.362,408.786L202.613,262.708L164.662,262.708C159.73,262.708 155.727,258.72 155.708,253.788L155.526,206.701C155.507,201.742 159.522,197.712 164.481,197.712L202.363,197.712L202.363,152.214C202.363,99.414 234.61,70.664 281.711,70.664L320.361,70.664C325.306,70.664 329.316,74.673 329.316,79.619L329.316,119.323C329.316,124.267 325.309,128.275 320.366,128.278L296.647,128.289C271.032,128.289 266.072,140.461 266.072,158.324L266.072,197.713L322.357,197.713C327.72,197.713 331.881,202.396 331.249,207.722L325.668,254.809C325.134,259.315 321.313,262.71 316.776,262.71L266.323,262.71L266.072,408.788L353.703,408.788C384.125,408.788 408.787,384.126 408.787,353.704L408.787,55.085C408.786,24.662 384.124,0 353.701,0Z" style="fill:rgb(71,89,147);fill-rule:nonzero;"/>
                </g>
            </g>
        </g>
    </g>
</svg>
