<?xml version="1.0" encoding="UTF-8" standalone="no"?>
<!DOCTYPE svg PUBLIC "-//W3C//DTD SVG 1.1//EN" "http://www.w3.org/Graphics/SVG/1.1/DTD/svg11.dtd">
<svg width="100%" height="100%" viewBox="0 0 33 33" version="1.1" xmlns="http://www.w3.org/2000/svg" xmlns:xlink="http://www.w3.org/1999/xlink" xml:space="preserve" xmlns:serif="http://www.serif.com/" style="fill-rule:evenodd;clip-rule:evenodd;stroke-linejoin:round;stroke-miterlimit:1.41421;">
    <g transform="matrix(1,0,0,1,-943.932,-3463.88)">
        <g transform="matrix(1,0,0,2.73907,0,576.73)">
            <g id="instagram-1-" serif:id="instagram(1)" transform="matrix(0.062765,0,0,0.0229147,960,1059.93)">
                <g transform="matrix(1,0,0,1,-256,-256)">
                    <path d="M510.461,150.453C509.215,123.203 504.887,104.594 498.559,88.313C492.133,71.23 482.055,55.758 469.031,42.969C456.246,29.945 440.77,19.863 423.688,13.434C407.402,7.109 388.797,2.785 361.547,1.547C334.246,0.297 325.523,0 256,0C186.477,0 177.754,0.297 150.453,1.539C123.203,2.785 104.598,7.113 88.313,13.441C71.23,19.867 55.758,29.945 42.969,42.969C29.945,55.754 19.863,71.227 13.434,88.309C7.109,104.594 2.785,123.203 1.547,150.449C0.297,177.754 0,186.473 0,255.996C0,325.523 0.297,334.246 1.547,361.547C2.789,388.793 7.117,407.402 13.445,423.688C19.871,440.766 29.949,456.242 42.973,469.027C55.758,482.051 71.234,492.129 88.316,498.555C104.598,504.887 123.207,509.211 150.457,510.457C177.762,511.703 186.48,511.996 256.004,511.996C325.527,511.996 334.25,511.703 361.551,510.457C388.801,509.211 407.406,504.887 423.691,498.555C458.078,485.258 485.262,458.074 498.559,423.687C504.891,407.402 509.215,388.793 510.461,361.547C511.703,334.242 512,325.523 512,256C512,186.473 511.703,177.754 510.461,150.453ZM464.379,359.449C463.242,384.41 459.07,397.965 455.566,406.984C446.953,429.313 429.309,446.957 406.98,455.57C397.961,459.074 384.406,463.246 359.445,464.383C332.457,465.617 324.359,465.875 256,465.875C187.637,465.875 179.543,465.617 152.551,464.383C127.594,463.246 114.039,459.074 105.016,455.57C93.898,451.465 83.84,444.922 75.582,436.418C67.078,428.16 60.535,418.105 56.43,406.984C52.926,397.965 48.754,384.41 47.617,359.449C46.387,332.457 46.125,324.359 46.125,256.004C46.125,187.645 46.387,179.551 47.617,152.555C48.758,127.594 52.926,114.039 56.43,105.02C60.535,93.898 67.082,83.84 75.582,75.582C83.84,67.078 93.898,60.535 105.02,56.434C114.039,52.926 127.594,48.758 152.555,47.617C179.547,46.387 187.645,46.125 256,46.125L255.996,46.125C324.352,46.125 332.449,46.387 359.445,47.621C384.406,48.758 397.957,52.93 406.98,56.434C418.098,60.539 428.156,67.082 436.414,75.582C444.918,83.84 451.461,93.898 455.563,105.02C459.07,114.039 463.242,127.594 464.379,152.555C465.609,179.547 465.871,187.645 465.871,256C465.871,324.359 465.613,332.453 464.379,359.449Z" style="fill:url(#_Linear1);fill-rule:nonzero;"/>
                    <path d="M255.996,124.539C183.395,124.539 124.539,183.398 124.539,256C124.539,328.602 183.395,387.457 255.996,387.457C328.602,387.457 387.457,328.602 387.457,256C387.457,183.398 328.602,124.539 255.996,124.539ZM255.996,341.332C208.871,341.328 170.664,303.125 170.668,255.996C170.668,208.871 208.871,170.664 256,170.664C303.129,170.668 341.332,208.871 341.332,255.996C341.332,303.125 303.125,341.332 255.996,341.332Z" style="fill:url(#_Linear2);fill-rule:nonzero;"/>
                    <path d="M423.371,119.348C423.371,136.313 409.617,150.066 392.652,150.066C375.684,150.066 361.93,136.313 361.93,119.348C361.93,102.379 375.684,88.625 392.652,88.625C409.617,88.625 423.371,102.379 423.371,119.348Z" style="fill:url(#_Linear3);fill-rule:nonzero;"/>
                </g>
            </g>
        </g>
    </g>
    <defs>
        <linearGradient id="_Linear1" x1="0" y1="0" x2="1" y2="0" gradientUnits="userSpaceOnUse" gradientTransform="matrix(426.068,-426.068,426.068,426.068,42.9662,469.03)"><stop offset="0" style="stop-color:rgb(255,214,0);stop-opacity:1"/><stop offset="0.5" style="stop-color:rgb(255,1,0);stop-opacity:1"/><stop offset="1" style="stop-color:rgb(216,0,185);stop-opacity:1"/></linearGradient>
        <linearGradient id="_Linear2" x1="0" y1="0" x2="1" y2="0" gradientUnits="userSpaceOnUse" gradientTransform="matrix(185.911,-185.911,185.911,185.911,163.043,348.954)"><stop offset="0" style="stop-color:rgb(255,100,0);stop-opacity:1"/><stop offset="0.5" style="stop-color:rgb(255,1,0);stop-opacity:1"/><stop offset="1" style="stop-color:rgb(253,0,86);stop-opacity:1"/></linearGradient>
        <linearGradient id="_Linear3" x1="0" y1="0" x2="1" y2="0" gradientUnits="userSpaceOnUse" gradientTransform="matrix(43.4437,-43.4437,43.4437,43.4437,370.929,141.068)"><stop offset="0" style="stop-color:rgb(243,0,114);stop-opacity:1"/><stop offset="1" style="stop-color:rgb(229,0,151);stop-opacity:1"/></linearGradient>
    </defs>
</svg>
