<?xml version="1.0" encoding="UTF-8" standalone="no"?>
<!DOCTYPE svg PUBLIC "-//W3C//DTD SVG 1.1//EN" "http://www.w3.org/Graphics/SVG/1.1/DTD/svg11.dtd">
<svg width="100%" height="100%" viewBox="0 0 33 33" version="1.1" xmlns="http://www.w3.org/2000/svg" xmlns:xlink="http://www.w3.org/1999/xlink" xml:space="preserve" xmlns:serif="http://www.serif.com/" style="fill-rule:evenodd;clip-rule:evenodd;stroke-linejoin:round;stroke-miterlimit:1.41421;">
    <g transform="matrix(1,0,0,1,-992.264,-3463.88)">
        <g transform="matrix(1,0,0,2.73907,0,576.73)">
            <g id="twitter" transform="matrix(0.286422,0,0,0.104569,1008.33,1059.93)">
                <g transform="matrix(1,0,0,1,-56.0985,-56.0985)">
                    <g>
                        <circle cx="56.099" cy="56.098" r="56.098" style="fill:rgb(85,172,238);"/>
                        <path d="M90.461,40.316C88.057,41.382 85.471,42.103 82.759,42.425C85.528,40.766 87.653,38.141 88.656,35.008C86.065,36.545 83.194,37.66 80.141,38.261C77.695,35.656 74.21,34.028 70.351,34.028C62.947,34.028 56.942,40.033 56.942,47.437C56.942,48.488 57.061,49.511 57.291,50.493C46.147,49.934 36.266,44.596 29.652,36.481C28.498,38.461 27.836,40.766 27.836,43.223C27.836,47.874 30.205,51.98 33.801,54.384C31.604,54.315 29.535,53.712 27.728,52.705C27.727,52.762 27.727,52.819 27.727,52.875C27.727,59.372 32.351,64.791 38.484,66.022C37.36,66.33 36.173,66.493 34.952,66.493C34.086,66.493 33.247,66.41 32.429,66.254C34.135,71.58 39.086,75.457 44.955,75.566C40.365,79.163 34.584,81.306 28.3,81.306C27.22,81.306 26.15,81.243 25.103,81.118C31.034,84.924 38.084,87.143 45.656,87.143C70.32,87.143 83.808,66.711 83.808,48.99C83.808,48.409 83.795,47.83 83.769,47.256C86.391,45.366 88.664,43.005 90.461,40.316Z" style="fill:rgb(241,242,242);fill-rule:nonzero;"/>
                    </g>
                </g>
            </g>
        </g>
    </g>
</svg>
